<svg width="14" height="14" viewBox="0 0 14 14" fill="none" xmlns="http://www.w3.org/2000/svg">
<path d="M7.25684e-08 7.00101C-0.000144734 5.99529 0.216428 5.00135 0.634971 4.08686C1.05352 3.17237 1.6642 2.3588 2.42545 1.70156C3.1867 1.04431 4.08064 0.55882 5.0464 0.278138C6.01216 -0.00254452 7.02706 -0.0718268 8.022 0.0750083C8.1064 0.0872862 8.18625 0.120948 8.25397 0.172792C8.32168 0.224637 8.37502 0.292941 8.40889 0.371211C8.44276 0.44948 8.45605 0.535113 8.4475 0.619968C8.43894 0.704822 8.40882 0.786078 8.36 0.856008C8.16858 1.13017 8.04896 1.44795 8.01206 1.78029C7.97517 2.11262 8.0222 2.4489 8.14883 2.75837C8.27546 3.06784 8.47766 3.34062 8.73694 3.55176C8.99622 3.76291 9.3043 3.90567 9.633 3.96701C9.7324 3.98556 9.82384 4.03382 9.89526 4.10541C9.96667 4.177 10.0147 4.26856 10.033 4.36801C10.0943 4.69687 10.237 5.00512 10.4482 5.26453C10.6594 5.52394 10.9323 5.72623 11.242 5.85288C11.5516 5.97954 11.888 6.0265 12.2205 5.98949C12.553 5.95247 12.8708 5.83266 13.145 5.64101C13.2149 5.59243 13.2961 5.56251 13.3808 5.55408C13.4655 5.54565 13.551 5.55899 13.6291 5.59284C13.7072 5.6267 13.7754 5.67993 13.8272 5.74751C13.879 5.81509 13.9126 5.89477 13.925 5.97901C13.975 6.31301 14 6.65368 14 7.00101C14 8.85752 13.2625 10.638 11.9497 11.9508C10.637 13.2635 8.85652 14.001 7 14.001C5.14348 14.001 3.36301 13.2635 2.05025 11.9508C0.737498 10.638 7.25684e-08 8.85752 7.25684e-08 7.00101ZM7 1.00101C5.80609 1.00109 4.63935 1.35736 3.64904 2.02423C2.65874 2.6911 1.8899 3.63826 1.44089 4.74452C0.991881 5.85078 0.88312 7.06585 1.12852 8.23427C1.37392 9.40269 1.96232 10.4713 2.81845 11.3035C3.67458 12.1356 4.7595 12.6934 5.93442 12.9056C7.10934 13.1177 8.32082 12.9744 9.41389 12.4942C10.5069 12.014 11.4319 11.2185 12.0704 10.2097C12.7088 9.20083 13.0318 8.02444 12.998 6.83101C12.6158 6.96583 12.2102 7.02181 11.8058 6.99557C11.4014 6.96933 11.0064 6.86141 10.6449 6.67833C10.2833 6.49525 9.96254 6.24081 9.70201 5.93035C9.44148 5.6199 9.24655 5.25987 9.129 4.87201C8.74113 4.75446 8.38111 4.55953 8.07066 4.299C7.7602 4.03847 7.50576 3.71773 7.32268 3.35616C7.1396 2.99458 7.03168 2.59965 7.00544 2.19521C6.9792 1.79077 7.03518 1.38521 7.17 1.00301L7 1.00101ZM7.75 7.00101C7.75 7.19992 7.67098 7.39069 7.53033 7.53134C7.38968 7.67199 7.19891 7.75101 7 7.75101C6.80109 7.75101 6.61032 7.67199 6.46967 7.53134C6.32902 7.39069 6.25 7.19992 6.25 7.00101C6.25 6.8021 6.32902 6.61133 6.46967 6.47068C6.61032 6.33003 6.80109 6.25101 7 6.25101C7.19891 6.25101 7.38968 6.33003 7.53033 6.47068C7.67098 6.61133 7.75 6.8021 7.75 7.00101ZM4.25 10.501C4.44891 10.501 4.63968 10.422 4.78033 10.2813C4.92098 10.1407 5 9.94992 5 9.75101C5 9.5521 4.92098 9.36133 4.78033 9.22068C4.63968 9.08003 4.44891 9.00101 4.25 9.00101C4.05109 9.00101 3.86032 9.08003 3.71967 9.22068C3.57902 9.36133 3.5 9.5521 3.5 9.75101C3.5 9.94992 3.57902 10.1407 3.71967 10.2813C3.86032 10.422 4.05109 10.501 4.25 10.501ZM4.5 5.25101C4.5 5.44992 4.42098 5.64069 4.28033 5.78134C4.13968 5.92199 3.94891 6.00101 3.75 6.00101C3.55109 6.00101 3.36032 5.92199 3.21967 5.78134C3.07902 5.64069 3 5.44992 3 5.25101C3 5.0521 3.07902 4.86133 3.21967 4.72068C3.36032 4.58003 3.55109 4.50101 3.75 4.50101C3.94891 4.50101 4.13968 4.58003 4.28033 4.72068C4.42098 4.86133 4.5 5.0521 4.5 5.25101ZM8.75 11.001C8.94891 11.001 9.13968 10.922 9.28033 10.7813C9.42098 10.6407 9.5 10.4499 9.5 10.251C9.5 10.0521 9.42098 9.86133 9.28033 9.72068C9.13968 9.58003 8.94891 9.50101 8.75 9.50101C8.55109 9.50101 8.36032 9.58003 8.21967 9.72068C8.07902 9.86133 8 10.0521 8 10.251C8 10.4499 8.07902 10.6407 8.21967 10.7813C8.36032 10.922 8.55109 11.001 8.75 11.001Z" fill="#5C5C5C"/>
</svg>
