<svg width="13" height="14" viewBox="0 0 13 14" fill="none" xmlns="http://www.w3.org/2000/svg">
<path d="M11.6711 11.5381H1.52644C1.08037 11.5381 0.71875 11.8997 0.71875 12.3458C0.71875 12.7919 1.08037 13.1535 1.52644 13.1535H11.6711C12.1171 13.1535 12.4788 12.7919 12.4788 12.3458C12.4788 11.8997 12.1171 11.5381 11.6711 11.5381Z" fill="black"/>
<path d="M2.30607 8.57659L1.56402 10.3598C1.54263 10.4112 1.5374 10.4675 1.54896 10.5217C1.56053 10.5759 1.58838 10.6256 1.62908 10.6647C1.66977 10.7039 1.72151 10.7307 1.77789 10.7418C1.83426 10.7529 1.89279 10.7479 1.94622 10.7273L3.80136 10.0138C4.09711 9.90014 4.36576 9.72991 4.59104 9.51343L11.0114 3.33943C11.2453 3.11451 11.3768 2.80944 11.3768 2.49135C11.3768 2.17326 11.2453 1.8682 11.0114 1.64328C10.7775 1.41835 10.4602 1.29199 10.1294 1.29199C9.7986 1.29199 9.48134 1.41835 9.24742 1.64328L2.82645 7.81728C2.60132 8.03389 2.42428 8.29222 2.30607 8.57659Z" fill="black"/>
</svg>
