<svg width="441" height="441" viewBox="0 0 441 441" fill="none" xmlns="http://www.w3.org/2000/svg">
<path d="M0 0H441V441H0V0Z" fill="#D9D9D9"/>
<rect x="154.89" y="207.107" width="125.157" height="87.9148" rx="4.27364" stroke="#505050" stroke-width="2.44208"/>
<path d="M182.496 257.882C184.414 255.837 187.655 255.822 189.591 257.849L225.1 295.021H188.468H156.721L153.974 288.306L182.496 257.882Z" fill="#505050"/>
<circle cx="186.637" cy="232.748" r="9.15779" fill="#505050"/>
<rect x="275.573" y="304.455" width="32.4023" height="9.73141" transform="rotate(-50.2549 275.573 304.455)" fill="#D9D9D9"/>
<rect x="286.151" y="302.904" width="32.4023" height="9.73141" transform="rotate(-85.52 286.151 302.904)" fill="#D9D9D9"/>
<path d="M230.853 231.563C233.292 228.223 238.275 228.223 240.714 231.563L279.189 284.247C282.135 288.281 279.254 293.953 274.258 293.953H197.309C192.314 293.953 189.432 288.281 192.378 284.247L230.853 231.563Z" fill="#505050"/>
<circle cx="271.804" cy="285.558" r="18.0103" fill="#D9D9D9"/>
<rect x="186.527" y="255.199" width="4.42014" height="51.7161" rx="2.21007" transform="rotate(-44.4297 186.527 255.199)" fill="#D9D9D9"/>
<path fill-rule="evenodd" clip-rule="evenodd" d="M286.151 285.864C286.151 293.619 279.865 299.906 272.11 299.906C264.354 299.906 258.068 293.619 258.068 285.864C258.068 278.108 264.354 271.822 272.11 271.822C279.865 271.822 286.151 278.108 286.151 285.864ZM266.649 291.325C266.517 291.193 266.443 291.014 266.443 290.828C266.443 290.642 266.517 290.464 266.649 290.332L271.117 285.864L266.649 281.396C266.521 281.263 266.45 281.086 266.452 280.902C266.453 280.718 266.527 280.542 266.657 280.411C266.787 280.281 266.963 280.207 267.148 280.206C267.332 280.204 267.509 280.275 267.641 280.403L272.11 284.871L276.578 280.403C276.71 280.275 276.887 280.204 277.072 280.206C277.256 280.207 277.432 280.281 277.562 280.411C277.692 280.542 277.766 280.718 277.767 280.902C277.769 281.086 277.698 281.263 277.57 281.396L273.102 285.864L277.57 290.332C277.698 290.464 277.769 290.642 277.767 290.826C277.766 291.01 277.692 291.186 277.562 291.316C277.432 291.446 277.256 291.52 277.072 291.522C276.887 291.523 276.71 291.453 276.578 291.325L272.11 286.856L267.641 291.325C267.51 291.456 267.331 291.53 267.145 291.53C266.959 291.53 266.78 291.456 266.649 291.325Z" fill="#DD3E3E"/>
<path d="M148.49 145.227C147.25 145.227 146.062 145.053 144.928 144.705C143.794 144.342 142.894 143.881 142.229 143.321L143.25 141.03C143.885 141.529 144.671 141.945 145.609 142.278C146.546 142.611 147.507 142.777 148.49 142.777C149.321 142.777 149.994 142.686 150.509 142.505C151.023 142.323 151.401 142.081 151.643 141.779C151.885 141.461 152.006 141.106 152.006 140.713C152.006 140.229 151.832 139.843 151.484 139.556C151.136 139.253 150.682 139.019 150.123 138.853C149.578 138.671 148.966 138.505 148.285 138.353C147.62 138.202 146.947 138.028 146.267 137.832C145.601 137.62 144.989 137.355 144.429 137.038C143.885 136.705 143.439 136.266 143.091 135.722C142.743 135.178 142.569 134.482 142.569 133.635C142.569 132.773 142.796 131.987 143.25 131.276C143.718 130.55 144.422 129.975 145.359 129.552C146.312 129.113 147.514 128.894 148.966 128.894C149.919 128.894 150.864 129.015 151.802 129.257C152.739 129.499 153.556 129.847 154.251 130.3L153.321 132.592C152.611 132.168 151.877 131.858 151.121 131.662C150.365 131.45 149.639 131.344 148.943 131.344C148.127 131.344 147.461 131.442 146.947 131.639C146.448 131.835 146.078 132.093 145.836 132.41C145.609 132.728 145.495 133.091 145.495 133.499C145.495 133.983 145.662 134.376 145.994 134.679C146.342 134.966 146.788 135.193 147.333 135.359C147.892 135.525 148.512 135.692 149.193 135.858C149.873 136.009 150.546 136.183 151.212 136.38C151.892 136.577 152.505 136.834 153.049 137.151C153.609 137.469 154.055 137.9 154.388 138.444C154.735 138.989 154.909 139.677 154.909 140.508C154.909 141.355 154.675 142.142 154.206 142.868C153.752 143.578 153.049 144.153 152.096 144.592C151.144 145.015 149.941 145.227 148.49 145.227ZM163.255 145.159C161.909 145.159 160.73 144.894 159.716 144.365C158.718 143.82 157.939 143.079 157.38 142.142C156.835 141.204 156.563 140.138 156.563 138.943C156.563 137.733 156.828 136.667 157.357 135.745C157.902 134.807 158.643 134.074 159.58 133.544C160.533 133.015 161.614 132.75 162.824 132.75C164.004 132.75 165.055 133.007 165.977 133.522C166.9 134.036 167.626 134.762 168.155 135.699C168.684 136.637 168.949 137.741 168.949 139.011C168.949 139.132 168.941 139.268 168.926 139.42C168.926 139.571 168.919 139.715 168.903 139.851H158.809V137.968H167.406L166.295 138.558C166.31 137.862 166.166 137.249 165.864 136.72C165.561 136.191 165.145 135.775 164.616 135.473C164.102 135.17 163.505 135.019 162.824 135.019C162.128 135.019 161.516 135.17 160.987 135.473C160.472 135.775 160.064 136.198 159.762 136.743C159.474 137.272 159.331 137.9 159.331 138.626V139.079C159.331 139.805 159.497 140.448 159.83 141.008C160.162 141.567 160.631 141.998 161.236 142.301C161.841 142.603 162.537 142.754 163.323 142.754C164.004 142.754 164.616 142.648 165.161 142.437C165.705 142.225 166.189 141.892 166.612 141.439L168.132 143.185C167.588 143.82 166.9 144.312 166.068 144.66C165.251 144.992 164.314 145.159 163.255 145.159ZM186.962 132.75C187.93 132.75 188.784 132.939 189.525 133.318C190.281 133.696 190.871 134.278 191.295 135.064C191.718 135.835 191.93 136.834 191.93 138.059V145H189.094V138.422C189.094 137.348 188.86 136.546 188.391 136.017C187.922 135.488 187.249 135.223 186.372 135.223C185.752 135.223 185.2 135.359 184.716 135.631C184.247 135.904 183.877 136.304 183.605 136.834C183.348 137.363 183.219 138.036 183.219 138.853V145H180.383V138.422C180.383 137.348 180.149 136.546 179.68 136.017C179.211 135.488 178.538 135.223 177.661 135.223C177.041 135.223 176.489 135.359 176.005 135.631C175.536 135.904 175.166 136.304 174.894 136.834C174.637 137.363 174.508 138.036 174.508 138.853V145H171.673V132.887H174.372V136.108L173.896 135.155C174.304 134.369 174.894 133.771 175.665 133.363C176.451 132.955 177.344 132.75 178.342 132.75C179.476 132.75 180.459 133.03 181.291 133.59C182.138 134.149 182.697 134.996 182.969 136.13L181.858 135.745C182.251 134.837 182.901 134.111 183.809 133.567C184.716 133.023 185.767 132.75 186.962 132.75ZM201.823 145V132.887H204.658V145H201.823ZM203.252 130.89C202.722 130.89 202.284 130.724 201.936 130.391C201.603 130.059 201.437 129.658 201.437 129.189C201.437 128.705 201.603 128.304 201.936 127.987C202.284 127.654 202.722 127.488 203.252 127.488C203.781 127.488 204.212 127.646 204.545 127.964C204.892 128.266 205.066 128.652 205.066 129.121C205.066 129.62 204.9 130.043 204.567 130.391C204.235 130.724 203.796 130.89 203.252 130.89ZM223.669 132.75C224.637 132.75 225.491 132.939 226.232 133.318C226.989 133.696 227.578 134.278 228.002 135.064C228.425 135.835 228.637 136.834 228.637 138.059V145H225.801V138.422C225.801 137.348 225.567 136.546 225.098 136.017C224.629 135.488 223.956 135.223 223.079 135.223C222.459 135.223 221.907 135.359 221.423 135.631C220.954 135.904 220.584 136.304 220.312 136.834C220.055 137.363 219.926 138.036 219.926 138.853V145H217.091V138.422C217.091 137.348 216.856 136.546 216.387 136.017C215.919 135.488 215.246 135.223 214.368 135.223C213.748 135.223 213.196 135.359 212.712 135.631C212.244 135.904 211.873 136.304 211.601 136.834C211.344 137.363 211.215 138.036 211.215 138.853V145H208.38V132.887H211.079V136.108L210.603 135.155C211.011 134.369 211.601 133.771 212.372 133.363C213.159 132.955 214.051 132.75 215.049 132.75C216.183 132.75 217.166 133.03 217.998 133.59C218.845 134.149 219.404 134.996 219.677 136.13L218.565 135.745C218.958 134.837 219.609 134.111 220.516 133.567C221.423 133.023 222.474 132.75 223.669 132.75ZM239.724 145V142.55L239.565 142.028V137.741C239.565 136.909 239.315 136.266 238.816 135.813C238.317 135.344 237.561 135.11 236.548 135.11C235.867 135.11 235.194 135.215 234.529 135.427C233.879 135.639 233.327 135.934 232.873 136.312L231.761 134.248C232.412 133.749 233.183 133.378 234.075 133.136C234.983 132.879 235.92 132.75 236.888 132.75C238.642 132.75 239.996 133.174 240.949 134.021C241.916 134.852 242.4 136.146 242.4 137.9V145H239.724ZM235.913 145.159C235.005 145.159 234.211 145.008 233.531 144.705C232.85 144.388 232.321 143.957 231.943 143.412C231.58 142.853 231.398 142.225 231.398 141.529C231.398 140.849 231.557 140.236 231.875 139.692C232.207 139.147 232.744 138.716 233.485 138.399C234.226 138.081 235.209 137.922 236.434 137.922H239.95V139.805H236.639C235.671 139.805 235.02 139.964 234.688 140.282C234.355 140.584 234.189 140.962 234.189 141.416C234.189 141.93 234.393 142.338 234.801 142.641C235.209 142.943 235.777 143.095 236.502 143.095C237.198 143.095 237.818 142.936 238.363 142.618C238.922 142.301 239.323 141.832 239.565 141.212L240.041 142.913C239.769 143.624 239.277 144.176 238.567 144.569C237.871 144.962 236.986 145.159 235.913 145.159ZM251.551 149.56C250.432 149.56 249.336 149.408 248.262 149.106C247.203 148.819 246.334 148.395 245.653 147.836L246.924 145.703C247.453 146.142 248.118 146.49 248.92 146.747C249.736 147.019 250.561 147.155 251.392 147.155C252.723 147.155 253.699 146.845 254.319 146.225C254.939 145.62 255.249 144.705 255.249 143.48V141.325L255.476 138.58L255.385 135.835V132.887H258.084V143.163C258.084 145.355 257.525 146.966 256.406 147.994C255.287 149.038 253.668 149.56 251.551 149.56ZM251.188 144.456C250.039 144.456 248.995 144.214 248.058 143.73C247.135 143.231 246.402 142.543 245.857 141.665C245.328 140.788 245.063 139.76 245.063 138.58C245.063 137.416 245.328 136.395 245.857 135.518C246.402 134.641 247.135 133.96 248.058 133.476C248.995 132.992 250.039 132.75 251.188 132.75C252.217 132.75 253.139 132.955 253.956 133.363C254.772 133.771 255.423 134.406 255.907 135.268C256.406 136.13 256.655 137.234 256.655 138.58C256.655 139.926 256.406 141.038 255.907 141.915C255.423 142.777 254.772 143.42 253.956 143.843C253.139 144.251 252.217 144.456 251.188 144.456ZM251.619 142.051C252.33 142.051 252.965 141.907 253.525 141.62C254.084 141.318 254.515 140.909 254.818 140.395C255.135 139.866 255.294 139.261 255.294 138.58C255.294 137.9 255.135 137.302 254.818 136.788C254.515 136.259 254.084 135.858 253.525 135.586C252.965 135.299 252.33 135.155 251.619 135.155C250.909 135.155 250.266 135.299 249.691 135.586C249.132 135.858 248.693 136.259 248.375 136.788C248.073 137.302 247.922 137.9 247.922 138.58C247.922 139.261 248.073 139.866 248.375 140.395C248.693 140.909 249.132 141.318 249.691 141.62C250.266 141.907 250.909 142.051 251.619 142.051ZM267.506 145.159C266.16 145.159 264.98 144.894 263.967 144.365C262.969 143.82 262.19 143.079 261.631 142.142C261.086 141.204 260.814 140.138 260.814 138.943C260.814 137.733 261.079 136.667 261.608 135.745C262.152 134.807 262.894 134.074 263.831 133.544C264.784 133.015 265.865 132.75 267.075 132.75C268.255 132.75 269.306 133.007 270.228 133.522C271.151 134.036 271.877 134.762 272.406 135.699C272.935 136.637 273.2 137.741 273.2 139.011C273.2 139.132 273.192 139.268 273.177 139.42C273.177 139.571 273.17 139.715 273.154 139.851H263.06V137.968H271.657L270.546 138.558C270.561 137.862 270.417 137.249 270.115 136.72C269.812 136.191 269.396 135.775 268.867 135.473C268.353 135.17 267.756 135.019 267.075 135.019C266.379 135.019 265.767 135.17 265.238 135.473C264.723 135.775 264.315 136.198 264.013 136.743C263.725 137.272 263.582 137.9 263.582 138.626V139.079C263.582 139.805 263.748 140.448 264.081 141.008C264.413 141.567 264.882 141.998 265.487 142.301C266.092 142.603 266.788 142.754 267.574 142.754C268.255 142.754 268.867 142.648 269.411 142.437C269.956 142.225 270.44 141.892 270.863 141.439L272.383 143.185C271.839 143.82 271.151 144.312 270.319 144.66C269.502 144.992 268.565 145.159 267.506 145.159ZM291.213 132.75C292.181 132.75 293.035 132.939 293.776 133.318C294.532 133.696 295.122 134.278 295.546 135.064C295.969 135.835 296.181 136.834 296.181 138.059V145H293.345V138.422C293.345 137.348 293.111 136.546 292.642 136.017C292.173 135.488 291.5 135.223 290.623 135.223C290.003 135.223 289.451 135.359 288.967 135.631C288.498 135.904 288.128 136.304 287.856 136.834C287.598 137.363 287.47 138.036 287.47 138.853V145H284.634V138.422C284.634 137.348 284.4 136.546 283.931 136.017C283.462 135.488 282.789 135.223 281.912 135.223C281.292 135.223 280.74 135.359 280.256 135.631C279.787 135.904 279.417 136.304 279.145 136.834C278.888 137.363 278.759 138.036 278.759 138.853V145H275.924V132.887H278.623V136.108L278.147 135.155C278.555 134.369 279.145 133.771 279.916 133.363C280.702 132.955 281.595 132.75 282.593 132.75C283.727 132.75 284.71 133.03 285.542 133.59C286.389 134.149 286.948 134.996 287.22 136.13L286.109 135.745C286.502 134.837 287.152 134.111 288.06 133.567C288.967 133.023 290.018 132.75 291.213 132.75ZM166.919 173.159C165.755 173.159 164.704 172.902 163.766 172.388C162.843 171.858 162.118 171.132 161.588 170.21C161.059 169.287 160.794 168.198 160.794 166.943C160.794 165.688 161.059 164.599 161.588 163.677C162.118 162.754 162.843 162.036 163.766 161.522C164.704 161.007 165.755 160.75 166.919 160.75C167.932 160.75 168.84 160.977 169.641 161.431C170.443 161.87 171.078 162.542 171.547 163.45C172.016 164.357 172.25 165.522 172.25 166.943C172.25 168.35 172.023 169.514 171.569 170.437C171.116 171.344 170.488 172.025 169.687 172.478C168.885 172.932 167.963 173.159 166.919 173.159ZM167.259 170.732C167.94 170.732 168.545 170.58 169.074 170.278C169.619 169.975 170.05 169.537 170.367 168.962C170.7 168.387 170.866 167.715 170.866 166.943C170.866 166.157 170.7 165.484 170.367 164.924C170.05 164.35 169.619 163.911 169.074 163.609C168.545 163.306 167.94 163.155 167.259 163.155C166.579 163.155 165.966 163.306 165.422 163.609C164.893 163.911 164.462 164.35 164.129 164.924C163.811 165.484 163.653 166.157 163.653 166.943C163.653 167.715 163.811 168.387 164.129 168.962C164.462 169.537 164.893 169.975 165.422 170.278C165.966 170.58 166.579 170.732 167.259 170.732ZM170.934 173V170.142L171.048 166.921L170.821 163.699V156.168H173.634V173H170.934ZM177.366 173V160.887H180.201V173H177.366ZM178.795 158.89C178.266 158.89 177.827 158.724 177.479 158.391C177.147 158.059 176.98 157.658 176.98 157.189C176.98 156.705 177.147 156.304 177.479 155.987C177.827 155.654 178.266 155.488 178.795 155.488C179.324 155.488 179.755 155.646 180.088 155.964C180.436 156.266 180.61 156.652 180.61 157.121C180.61 157.62 180.443 158.043 180.111 158.391C179.778 158.724 179.339 158.89 178.795 158.89ZM187.666 173.159C186.653 173.159 185.677 173.03 184.74 172.773C183.817 172.501 183.084 172.176 182.539 171.798L183.628 169.643C184.173 169.991 184.823 170.278 185.579 170.505C186.335 170.732 187.091 170.845 187.847 170.845C188.74 170.845 189.382 170.724 189.776 170.482C190.184 170.24 190.388 169.915 190.388 169.507C190.388 169.174 190.252 168.924 189.98 168.758C189.708 168.577 189.352 168.44 188.914 168.35C188.475 168.259 187.984 168.176 187.439 168.1C186.91 168.025 186.373 167.926 185.829 167.805C185.299 167.669 184.815 167.48 184.377 167.238C183.938 166.981 183.583 166.641 183.311 166.217C183.038 165.794 182.902 165.234 182.902 164.539C182.902 163.767 183.122 163.102 183.56 162.542C183.999 161.968 184.611 161.529 185.398 161.227C186.199 160.909 187.144 160.75 188.233 160.75C189.05 160.75 189.874 160.841 190.706 161.023C191.537 161.204 192.226 161.461 192.77 161.794L191.681 163.949C191.106 163.601 190.524 163.367 189.934 163.246C189.36 163.11 188.785 163.042 188.21 163.042C187.348 163.042 186.706 163.17 186.282 163.427C185.874 163.684 185.67 164.009 185.67 164.403C185.67 164.766 185.806 165.038 186.078 165.219C186.35 165.401 186.706 165.544 187.144 165.65C187.583 165.756 188.067 165.847 188.596 165.922C189.14 165.983 189.677 166.081 190.207 166.217C190.736 166.353 191.22 166.542 191.658 166.784C192.112 167.011 192.475 167.336 192.747 167.76C193.02 168.183 193.156 168.735 193.156 169.416C193.156 170.172 192.929 170.83 192.475 171.389C192.037 171.949 191.409 172.388 190.592 172.705C189.776 173.008 188.8 173.159 187.666 173.159ZM202.312 173.159C201.329 173.159 200.429 172.932 199.613 172.478C198.811 172.025 198.168 171.344 197.685 170.437C197.216 169.514 196.981 168.35 196.981 166.943C196.981 165.522 197.208 164.357 197.662 163.45C198.131 162.542 198.766 161.87 199.567 161.431C200.369 160.977 201.284 160.75 202.312 160.75C203.507 160.75 204.558 161.007 205.465 161.522C206.388 162.036 207.114 162.754 207.643 163.677C208.187 164.599 208.46 165.688 208.46 166.943C208.46 168.198 208.187 169.295 207.643 170.232C207.114 171.155 206.388 171.873 205.465 172.388C204.558 172.902 203.507 173.159 202.312 173.159ZM195.598 177.401V160.887H198.297V163.745L198.206 166.966L198.433 170.187V177.401H195.598ZM201.995 170.732C202.675 170.732 203.28 170.58 203.809 170.278C204.354 169.975 204.785 169.537 205.102 168.962C205.42 168.387 205.579 167.715 205.579 166.943C205.579 166.157 205.42 165.484 205.102 164.924C204.785 164.35 204.354 163.911 203.809 163.609C203.28 163.306 202.675 163.155 201.995 163.155C201.314 163.155 200.702 163.306 200.157 163.609C199.613 163.911 199.182 164.35 198.864 164.924C198.547 165.484 198.388 166.157 198.388 166.943C198.388 167.715 198.547 168.387 198.864 168.962C199.182 169.537 199.613 169.975 200.157 170.278C200.702 170.58 201.314 170.732 201.995 170.732ZM216.593 173.159C215.353 173.159 214.249 172.894 213.281 172.365C212.313 171.82 211.55 171.079 210.99 170.142C210.43 169.204 210.151 168.138 210.151 166.943C210.151 165.733 210.43 164.667 210.99 163.745C211.55 162.807 212.313 162.074 213.281 161.544C214.249 161.015 215.353 160.75 216.593 160.75C217.848 160.75 218.96 161.015 219.928 161.544C220.911 162.074 221.674 162.8 222.219 163.722C222.778 164.645 223.058 165.718 223.058 166.943C223.058 168.138 222.778 169.204 222.219 170.142C221.674 171.079 220.911 171.82 219.928 172.365C218.96 172.894 217.848 173.159 216.593 173.159ZM216.593 170.732C217.289 170.732 217.909 170.58 218.453 170.278C218.998 169.975 219.421 169.537 219.724 168.962C220.041 168.387 220.2 167.715 220.2 166.943C220.2 166.157 220.041 165.484 219.724 164.924C219.421 164.35 218.998 163.911 218.453 163.609C217.909 163.306 217.296 163.155 216.616 163.155C215.92 163.155 215.3 163.306 214.756 163.609C214.226 163.911 213.803 164.35 213.485 164.924C213.168 165.484 213.009 166.157 213.009 166.943C213.009 167.715 213.168 168.387 213.485 168.962C213.803 169.537 214.226 169.975 214.756 170.278C215.3 170.58 215.913 170.732 216.593 170.732ZM232.643 160.75C233.611 160.75 234.473 160.939 235.229 161.318C236 161.696 236.605 162.278 237.044 163.064C237.482 163.835 237.702 164.834 237.702 166.059V173H234.866V166.422C234.866 165.348 234.609 164.546 234.095 164.017C233.596 163.488 232.893 163.223 231.985 163.223C231.32 163.223 230.73 163.359 230.216 163.631C229.702 163.904 229.301 164.312 229.014 164.856C228.741 165.386 228.605 166.059 228.605 166.875V173H225.77V160.887H228.469V164.153L227.993 163.155C228.416 162.384 229.029 161.794 229.83 161.386C230.647 160.962 231.584 160.75 232.643 160.75ZM241.299 173V160.887H244.134V173H241.299ZM240.822 159.231L243.885 156.123H247.219L243.272 159.231H240.822ZM251.077 173L245.882 160.887H248.831L253.3 171.571H251.848L256.476 160.887H259.198L254.003 173H251.077ZM266.332 173.159C264.986 173.159 263.806 172.894 262.793 172.365C261.795 171.82 261.016 171.079 260.457 170.142C259.912 169.204 259.64 168.138 259.64 166.943C259.64 165.733 259.905 164.667 260.434 163.745C260.978 162.807 261.719 162.074 262.657 161.544C263.61 161.015 264.691 160.75 265.901 160.75C267.08 160.75 268.132 161.007 269.054 161.522C269.977 162.036 270.702 162.762 271.232 163.699C271.761 164.637 272.026 165.741 272.026 167.011C272.026 167.132 272.018 167.268 272.003 167.42C272.003 167.571 271.995 167.715 271.98 167.851H261.886V165.968H270.483L269.372 166.558C269.387 165.862 269.243 165.249 268.941 164.72C268.638 164.191 268.222 163.775 267.693 163.473C267.179 163.17 266.581 163.019 265.901 163.019C265.205 163.019 264.593 163.17 264.063 163.473C263.549 163.775 263.141 164.198 262.838 164.743C262.551 165.272 262.407 165.9 262.407 166.626V167.079C262.407 167.805 262.574 168.448 262.907 169.008C263.239 169.567 263.708 169.998 264.313 170.301C264.918 170.603 265.614 170.754 266.4 170.754C267.08 170.754 267.693 170.648 268.237 170.437C268.782 170.225 269.266 169.892 269.689 169.439L271.209 171.185C270.665 171.82 269.977 172.312 269.145 172.66C268.328 172.992 267.391 173.159 266.332 173.159ZM274.749 173V156.168H277.585V173H274.749Z" fill="#434141"/>
</svg>
