<svg width="14" height="14" viewBox="0 0 14 14" fill="none" xmlns="http://www.w3.org/2000/svg">
<path d="M12.9391 11.2863C12.9326 11.516 12.8801 11.7421 12.7846 11.9511C12.689 12.1601 12.5525 12.3478 12.383 12.503C12.2135 12.6582 12.0146 12.7777 11.798 12.8545C11.5814 12.9314 11.3516 12.9639 11.1222 12.9501C9.68928 12.9581 8.25639 12.9501 6.82349 12.9501C6.73523 12.9501 6.65059 12.9151 6.58819 12.8527C6.52578 12.7903 6.49072 12.7056 6.49072 12.6174C6.49072 12.5291 6.52578 12.4445 6.58819 12.3821C6.65059 12.3197 6.73523 12.2846 6.82349 12.2846C8.28767 12.2846 9.75184 12.3059 11.216 12.2846C11.9528 12.2739 12.2736 11.7202 12.2736 11.0613V2.76677C12.2783 2.55739 12.2192 2.35151 12.1042 2.17651C11.9891 2.00152 11.8235 1.86569 11.6293 1.78711C11.3996 1.72408 11.1604 1.70266 10.9232 1.72388H6.82349C6.73523 1.72388 6.65059 1.68882 6.58819 1.62642C6.52578 1.56401 6.49072 1.47937 6.49072 1.39111C6.49072 1.30286 6.52578 1.21822 6.58819 1.15581C6.65059 1.0934 6.73523 1.05835 6.82349 1.05835C8.30364 1.05835 9.7951 1.00178 11.2739 1.05835C11.5004 1.06407 11.7234 1.11478 11.9301 1.20752C12.1368 1.30026 12.323 1.43318 12.4778 1.59854C12.6327 1.7639 12.7531 1.95841 12.832 2.17073C12.911 2.38306 12.9469 2.60897 12.9378 2.83532L12.9391 11.2863Z" fill="#C80000" stroke="#C80000" stroke-width="0.3"/>
<path d="M1.09808 6.7703C1.04213 6.82502 1.00927 6.89909 1.00623 6.97728C1.00712 6.9866 1.00579 6.99614 1.00224 7.0059C0.996916 7.02054 1.00224 7.02387 1.00623 7.03319C1.0091 7.11162 1.04198 7.18595 1.09808 7.24083L3.53993 9.68268C3.60269 9.7433 3.68674 9.77684 3.77399 9.77608C3.86124 9.77532 3.94471 9.74033 4.0064 9.67863C4.0681 9.61693 4.1031 9.53347 4.10386 9.44622C4.10462 9.35897 4.07107 9.27491 4.01046 9.21215L2.13698 7.338H9.28615C9.37441 7.338 9.45905 7.30294 9.52146 7.24054C9.58386 7.17813 9.61892 7.09349 9.61892 7.00523C9.61892 6.91698 9.58386 6.83234 9.52146 6.76993C9.45905 6.70753 9.37441 6.67247 9.28615 6.67247H2.13698L4.01046 4.79832C4.07107 4.73556 4.10462 4.6515 4.10386 4.56425C4.1031 4.477 4.0681 4.39354 4.0064 4.33184C3.94471 4.27014 3.86124 4.23515 3.77399 4.23439C3.68674 4.23363 3.60269 4.26717 3.53993 4.32779L1.09808 6.7703Z" fill="#C80000" stroke="#C80000" stroke-width="0.3"/>
</svg>
