<svg width="11" height="16" viewBox="0 0 11 16" fill="none" xmlns="http://www.w3.org/2000/svg">
<path d="M10.5663 12.8939L8.61168 11.006C8.48934 10.8879 8.48758 10.6922 8.60777 10.5718L10.2702 8.90716C10.4616 8.71546 10.3261 8.3877 10.0553 8.3877H0.766403C0.495514 8.3877 0.360006 8.7158 0.551764 8.90739L7.56135 15.9111C7.68006 16.0297 7.87228 16.0296 7.99086 15.9109L10.5702 13.328C10.6904 13.2077 10.6886 13.012 10.5663 12.8939Z" fill="#5C5C5C"/>
<path d="M0.263827 3.79487L2.2184 5.719C2.34074 5.83944 2.3425 6.03887 2.22231 6.16154L0.559882 7.85824C0.368449 8.05363 0.504028 8.3877 0.774756 8.3877H10.0637C10.3346 8.3877 10.4701 8.05329 10.2783 7.858L3.26873 0.719614C3.15002 0.598722 2.9578 0.59883 2.83922 0.719855L0.259917 3.35234C0.139727 3.47501 0.141488 3.67444 0.263827 3.79487Z" fill="white"/>
<path fill-rule="evenodd" clip-rule="evenodd" d="M10.0638 8.21732C10.1758 8.21732 10.2469 8.07086 10.1564 7.97865L3.14679 0.84026C3.0952 0.787727 3.01314 0.78777 2.96161 0.840367L0.382302 3.47285C0.328102 3.52817 0.328975 3.61948 0.384031 3.67367L2.3386 5.59781C2.52822 5.78447 2.53088 6.09203 2.3447 6.28205L0.682267 7.97876C0.591873 8.07102 0.663004 8.21732 0.774909 8.21732H10.0638ZM10.4006 7.73886C10.6935 8.03721 10.4936 8.55957 10.0638 8.55957H0.774909C0.34536 8.55957 0.145331 8.03774 0.437804 7.73923L2.10023 6.04253C2.15443 5.98721 2.15356 5.8959 2.0985 5.8417L0.143931 3.91757C-0.0456903 3.7309 -0.0483412 3.42335 0.137838 3.23333L2.71714 0.600842C2.90277 0.411389 3.20515 0.411215 3.39099 0.600467L10.4006 7.73886Z" fill="#5C5C5C"/>
</svg>
