<svg width="60" height="60" viewBox="0 0 60 60" fill="none" xmlns="http://www.w3.org/2000/svg">
<path d="M30.2177 29.4817C30.1768 29.4817 30.1495 29.4817 30.1086 29.4817C30.0404 29.4681 29.945 29.4681 29.8632 29.4817C25.9086 29.359 22.9222 26.2499 22.9222 22.4181C22.9222 18.5181 26.0995 15.3408 29.9995 15.3408C33.8995 15.3408 37.0768 18.5181 37.0768 22.4181C37.0632 26.2499 34.0631 29.359 30.2586 29.4817C30.245 29.4817 30.2313 29.4817 30.2177 29.4817ZM29.9995 17.3863C27.2313 17.3863 24.9677 19.6499 24.9677 22.4181C24.9677 25.1454 27.095 27.3408 29.8086 27.4363C29.8768 27.4226 30.0677 27.4226 30.245 27.4363C32.9177 27.3135 35.0177 25.1181 35.0313 22.4181C35.0313 19.6499 32.7677 17.3863 29.9995 17.3863Z" fill="#343541"/>
<path d="M30.2314 44.3865C27.5587 44.3865 24.8723 43.7046 22.8405 42.341C20.9451 41.0865 19.9087 39.3683 19.9087 37.5001C19.9087 35.6319 20.9451 33.9001 22.8405 32.6319C26.9314 29.9183 33.5587 29.9183 37.6223 32.6319C39.5041 33.8865 40.5541 35.6046 40.5541 37.4728C40.5541 39.341 39.5178 41.0728 37.6223 42.341C35.5769 43.7046 32.9041 44.3865 30.2314 44.3865ZM23.9723 34.3501C22.6632 35.2228 21.9541 36.341 21.9541 37.5137C21.9541 38.6728 22.6769 39.791 23.9723 40.6501C27.3678 42.9274 33.0951 42.9274 36.4905 40.6501C37.7996 39.7774 38.5087 38.6592 38.5087 37.4865C38.5087 36.3274 37.786 35.2092 36.4905 34.3501C33.0951 32.0865 27.3678 32.0865 23.9723 34.3501Z" fill="#343541"/>
<path d="M59.5002 30C59.5002 46.2924 46.2926 59.5 30.0002 59.5C13.7078 59.5 0.500235 46.2924 0.500235 30C0.500235 13.7076 13.7078 0.5 30.0002 0.5C46.2926 0.5 59.5002 13.7076 59.5002 30Z" stroke="#343541"/>
</svg>
