<svg width="80" height="80" viewBox="0 0 80 80" fill="none" xmlns="http://www.w3.org/2000/svg">
<circle cx="40" cy="40" r="40" fill="#00C17C"/>
<g clip-path="url(#clip0_5524_3237)">
<path d="M25.8333 17C24.2661 17 23 18.2848 23 19.875C23 21.4652 24.2661 22.75 25.8333 22.75V23.7383C25.8333 27.5477 27.3297 31.2043 29.9859 33.8996L35.9891 40L29.9859 46.1004C27.3297 48.7957 25.8333 52.4523 25.8333 56.2617V57.25C24.2661 57.25 23 58.5348 23 60.125C23 61.7152 24.2661 63 25.8333 63H54.1667C55.7339 63 57 61.7152 57 60.125C57 58.5348 55.7339 57.25 54.1667 57.25V56.2617C54.1667 52.4523 52.6703 48.7957 50.0141 46.1004L44.0109 40L50.0229 33.8996C52.6792 31.2043 54.1755 27.5477 54.1755 23.7383V22.75C55.7427 22.75 57.0089 21.4652 57.0089 19.875C57.0089 18.2848 55.7427 17 54.1755 17H28.6667H25.8333ZM48.5 56.2617V57.25H31.5V56.2617C31.5 53.9707 32.3943 51.7785 33.988 50.1613L40 44.0699L46.012 50.1703C47.6057 51.7875 48.5 53.9797 48.5 56.2707V56.2617Z" fill="#F8F8F8"/>
</g>
<defs>
<clipPath id="clip0_5524_3237">
<rect width="34" height="46" fill="white" transform="translate(23 17)"/>
</clipPath>
</defs>
</svg>
