<svg width="95" height="137" viewBox="0 0 95 137" fill="none" xmlns="http://www.w3.org/2000/svg">
<path d="M93.1776 108.369L75.876 91.7493C74.793 90.7091 74.7774 88.9865 75.8413 87.927L90.557 73.2718C92.2515 71.5842 91.0514 68.6987 88.6549 68.6987H6.43041C4.03253 68.6987 2.83303 71.5872 4.53045 73.2739L66.5785 134.931C67.6293 135.975 69.3309 135.974 70.3805 134.929L93.2122 112.191C94.2762 111.132 94.2605 109.409 93.1776 108.369Z" fill="#252525" stroke="white"/>
<path d="M1.82251 28.6238L19.1241 45.4129C20.2071 46.4638 20.2227 48.2039 19.1588 49.2743L4.44314 64.079C2.74859 65.7838 3.94873 68.6987 6.34518 68.6987H88.5697C90.9676 68.6987 92.1671 65.7808 90.4697 64.0769L28.4216 1.79051C27.3708 0.735657 25.6693 0.7366 24.6196 1.79261L1.78787 24.7625C0.723971 25.8328 0.739574 27.573 1.82251 28.6238Z" fill="#00C17C" stroke="white"/>
</svg>
