<svg width="22" height="23" viewBox="0 0 22 23" fill="none" xmlns="http://www.w3.org/2000/svg">
<path d="M16.79 22.4765H5.21C2.47 22.4765 0.25 20.2465 0.25 17.5065V10.0965C0.25 8.73654 1.09 7.02654 2.17 6.18654L7.56 1.98654C9.18 0.726537 11.77 0.666537 13.45 1.84654L19.63 6.17654C20.82 7.00654 21.75 8.78654 21.75 10.2365V17.5165C21.75 20.2465 19.53 22.4765 16.79 22.4765ZM8.48 3.16654L3.09 7.36654C2.38 7.92654 1.75 9.19654 1.75 10.0965V17.5065C1.75 19.4165 3.3 20.9765 5.21 20.9765H16.79C18.7 20.9765 20.25 19.4265 20.25 17.5165V10.2365C20.25 9.27654 19.56 7.94654 18.77 7.40654L12.59 3.07654C11.45 2.27654 9.57 2.31654 8.48 3.16654Z" fill="#00C17C" stroke="#00C17C" stroke-width="0.4"/>
<path d="M11 18.4766C10.59 18.4766 10.25 18.1366 10.25 17.7266V14.7266C10.25 14.3166 10.59 13.9766 11 13.9766C11.41 13.9766 11.75 14.3166 11.75 14.7266V17.7266C11.75 18.1366 11.41 18.4766 11 18.4766Z" fill="#00C17C" stroke="#00C17C" stroke-width="0.4"/>
</svg>
