<svg width="23" height="23" viewBox="0 0 23 23" fill="none" xmlns="http://www.w3.org/2000/svg">
<mask id="path-1-inside-1_3876_2481" fill="white">
<path d="M17.3101 22.4765H5.19095C2.32337 22.4765 0 20.1427 0 17.2751V9.52009C0 8.09677 0.879112 6.30715 2.0094 5.42803L7.65037 1.03247C9.3458 -0.286197 12.0564 -0.34899 13.8146 0.885953L20.2824 5.41757C21.5278 6.28622 22.5011 8.1491 22.5011 9.66661V17.2856C22.5011 20.1427 20.1777 22.4765 17.3101 22.4765ZM8.61321 2.26742L2.97224 6.66298C2.22918 7.24905 1.56984 8.57819 1.56984 9.52009V17.2751C1.56984 19.2741 3.19202 20.9067 5.19095 20.9067H17.3101C19.3091 20.9067 20.9312 19.2845 20.9312 17.2856V9.66661C20.9312 8.66191 20.2091 7.26998 19.3823 6.70484L12.9146 2.17323C11.7215 1.33598 9.75396 1.37784 8.61321 2.26742Z"/>
</mask>
<path d="M17.3101 22.4765H5.19095C2.32337 22.4765 0 20.1427 0 17.2751V9.52009C0 8.09677 0.879112 6.30715 2.0094 5.42803L7.65037 1.03247C9.3458 -0.286197 12.0564 -0.34899 13.8146 0.885953L20.2824 5.41757C21.5278 6.28622 22.5011 8.1491 22.5011 9.66661V17.2856C22.5011 20.1427 20.1777 22.4765 17.3101 22.4765ZM8.61321 2.26742L2.97224 6.66298C2.22918 7.24905 1.56984 8.57819 1.56984 9.52009V17.2751C1.56984 19.2741 3.19202 20.9067 5.19095 20.9067H17.3101C19.3091 20.9067 20.9312 19.2845 20.9312 17.2856V9.66661C20.9312 8.66191 20.2091 7.26998 19.3823 6.70484L12.9146 2.17323C11.7215 1.33598 9.75396 1.37784 8.61321 2.26742Z" fill="#707B81"/>
<path d="M2.0094 5.42803L3.23728 7.00674L3.2387 7.00564L2.0094 5.42803ZM7.65037 1.03247L6.42249 -0.546233L6.42107 -0.545128L7.65037 1.03247ZM13.8146 0.885953L12.6651 2.52259L12.667 2.52392L13.8146 0.885953ZM20.2824 5.41757L19.1347 7.05554L19.1382 7.05797L20.2824 5.41757ZM8.61321 2.26742L9.84251 3.84502L9.84309 3.84456L8.61321 2.26742ZM2.97224 6.66298L1.74292 5.08535L1.73367 5.09265L2.97224 6.66298ZM19.3823 6.70484L18.2347 8.34281L18.2442 8.34944L18.2537 8.35597L19.3823 6.70484ZM12.9146 2.17323L11.7657 3.81034L11.7669 3.81119L12.9146 2.17323ZM17.3101 20.4765H5.19095V24.4765H17.3101V20.4765ZM5.19095 20.4765C3.43318 20.4765 2 19.0434 2 17.2751H-2C-2 21.242 1.21356 24.4765 5.19095 24.4765V20.4765ZM2 17.2751V9.52009H-2V17.2751H2ZM2 9.52009C2 9.18657 2.11364 8.68591 2.37604 8.15161C2.63812 7.61796 2.96702 7.21694 3.23728 7.00674L0.781519 3.84933C-0.0785109 4.51824 -0.754306 5.45159 -1.21436 6.38836C-1.67409 7.32448 -2 8.4303 -2 9.52009H2ZM3.2387 7.00564L8.87967 2.61007L6.42107 -0.545128L0.780101 3.85043L3.2387 7.00564ZM8.87825 2.61118C9.87796 1.83363 11.6239 1.79126 12.6651 2.52258L14.9642 -0.750678C12.4889 -2.48924 8.81364 -2.40602 6.42249 -0.546232L8.87825 2.61118ZM12.667 2.52392L19.1347 7.05553L21.43 3.7796L14.9623 -0.752012L12.667 2.52392ZM19.1382 7.05797C19.4373 7.26657 19.7982 7.67364 20.086 8.22462C20.3738 8.77572 20.5011 9.30355 20.5011 9.66661H24.5011C24.5011 8.51216 24.1417 7.34979 23.6316 6.37291C23.1213 5.39591 22.3729 4.43721 21.4265 3.77716L19.1382 7.05797ZM20.5011 9.66661V17.2856H24.5011V9.66661H20.5011ZM20.5011 17.2856C20.5011 19.0408 19.0705 20.4765 17.3101 20.4765V24.4765C21.2849 24.4765 24.5011 21.2446 24.5011 17.2856H20.5011ZM7.38391 0.689815L1.74294 5.08538L4.20154 8.24058L9.84251 3.84502L7.38391 0.689815ZM1.73367 5.09265C1.0555 5.62753 0.539571 6.38129 0.198189 7.07445C-0.141965 7.76512 -0.430156 8.64196 -0.430156 9.52009H3.56984C3.56984 9.45632 3.61132 9.19764 3.7866 8.84174C3.96065 8.48834 4.14591 8.2845 4.21081 8.23331L1.73367 5.09265ZM-0.430156 9.52009V17.2751H3.56984V9.52009H-0.430156ZM-0.430156 17.2751C-0.430156 20.3711 2.07994 22.9067 5.19095 22.9067V18.9067C4.30409 18.9067 3.56984 18.177 3.56984 17.2751H-0.430156ZM5.19095 22.9067H17.3101V18.9067H5.19095V22.9067ZM17.3101 22.9067C20.4136 22.9067 22.9312 20.3891 22.9312 17.2856H18.9312C18.9312 18.18 18.2045 18.9067 17.3101 18.9067V22.9067ZM22.9312 17.2856V9.66661H18.9312V17.2856H22.9312ZM22.9312 9.66661C22.9312 8.74281 22.6189 7.82221 22.2401 7.09591C21.8622 6.37144 21.283 5.58144 20.511 5.05371L18.2537 8.35597C18.3085 8.39339 18.5037 8.58192 18.6936 8.94588C18.8825 9.308 18.9312 9.58571 18.9312 9.66661H22.9312ZM20.53 5.06687L14.0622 0.535259L11.7669 3.81119L18.2347 8.34281L20.53 5.06687ZM14.0634 0.536112C13.0496 -0.175378 11.8181 -0.451016 10.7009 -0.426769C9.58471 -0.402545 8.36338 -0.0739957 7.38332 0.690271L9.84309 3.84456C10.0038 3.71925 10.3366 3.58208 10.7877 3.57229C11.2377 3.56252 11.5865 3.68458 11.7657 3.81034L14.0634 0.536112Z" fill="#707B81" mask="url(#path-1-inside-1_3876_2481)"/>
<path d="M11.2507 17.7901C11.0978 17.7901 10.9658 17.6581 10.9658 17.5052V14.3655C10.9658 14.2125 11.0978 14.0806 11.2507 14.0806C11.4037 14.0806 11.5357 14.2125 11.5357 14.3655V17.5052C11.5357 17.6581 11.4037 17.7901 11.2507 17.7901Z" fill="#707B81" stroke="#707B81"/>
</svg>
