<svg width="16" height="23" viewBox="0 0 16 23" fill="none" xmlns="http://www.w3.org/2000/svg">
<path d="M7.91465 10.8569C7.88324 10.8569 7.8623 10.8569 7.83089 10.8569C7.77855 10.8464 7.70526 10.8464 7.64244 10.8569C4.60629 10.7626 2.31348 8.37559 2.31348 5.43366C2.31348 2.43939 4.75287 0 7.74714 0C10.7414 0 13.1808 2.43939 13.1808 5.43366C13.1703 8.37559 10.867 10.7626 7.94606 10.8569C7.93559 10.8569 7.92512 10.8569 7.91465 10.8569ZM7.74714 1.57042C5.62183 1.57042 3.8839 3.30836 3.8839 5.43366C3.8839 7.52756 5.51714 9.21315 7.60057 9.28643C7.65291 9.27596 7.79949 9.27596 7.93559 9.28643C9.98761 9.19221 11.5999 7.50662 11.6104 5.43366C11.6104 3.30836 9.87244 1.57042 7.74714 1.57042Z" fill="#707B81"/>
<path d="M7.9254 22.3002C5.87338 22.3002 3.81089 21.7767 2.25094 20.7297C0.795681 19.7665 0 18.4474 0 17.0131C0 15.5787 0.795681 14.2491 2.25094 13.2755C5.39178 11.192 10.48 11.192 13.5999 13.2755C15.0446 14.2387 15.8508 15.5578 15.8508 16.9921C15.8508 18.4264 15.0551 19.7561 13.5999 20.7297C12.0294 21.7767 9.97742 22.3002 7.9254 22.3002ZM3.11991 14.5946C2.11484 15.2647 1.57042 16.1232 1.57042 17.0235C1.57042 17.9134 2.12531 18.7719 3.11991 19.4315C5.72681 21.1799 10.124 21.1799 12.7309 19.4315C13.736 18.7615 14.2804 17.903 14.2804 17.0026C14.2804 16.1127 13.7255 15.2542 12.7309 14.5946C10.124 12.8567 5.72681 12.8567 3.11991 14.5946Z" fill="#707B81"/>
</svg>
