<svg width="22" height="22" viewBox="0 0 22 22" fill="none" xmlns="http://www.w3.org/2000/svg">
<path d="M2.74643 16.0024C4.36003 17.6178 6.50883 18.5875 8.78803 18.729C11.0672 18.8704 13.3195 18.1736 15.1205 16.7701L20.0252 21.673C20.245 21.8852 20.5393 22.0026 20.8449 22C21.1504 21.9973 21.4426 21.8748 21.6587 21.6588C21.8748 21.4428 21.9973 21.1506 22 20.8452C22.0026 20.5397 21.8852 20.2455 21.6729 20.0258L16.7682 15.1229C18.2344 13.2417 18.9277 10.8722 18.7065 8.49763C18.4853 6.12305 17.3663 3.92227 15.5778 2.34409C13.7893 0.765923 11.466 -0.070755 9.08163 0.00469271C6.69728 0.0801404 4.43152 1.06203 2.74643 2.75012C1.87573 3.62012 1.18503 4.65309 0.713792 5.79003C0.24255 6.92696 0 8.14558 0 9.37626C0 10.6069 0.24255 11.8256 0.713792 12.9625C1.18503 14.0994 1.87573 15.1324 2.74643 16.0024ZM4.39413 4.39966C5.54609 3.24807 7.06182 2.53139 8.68307 2.37174C10.3043 2.2121 11.9308 2.61935 13.2854 3.52413C14.6399 4.4289 15.6388 5.77521 16.1118 7.33368C16.5848 8.89215 16.5026 10.5664 15.8793 12.0711C15.2559 13.5757 14.13 14.8178 12.6934 15.5857C11.2567 16.3535 9.59816 16.5997 8.00033 16.2821C6.4025 15.9646 4.96423 15.103 3.93058 13.8442C2.89692 12.5854 2.33184 11.0072 2.33159 9.37859C2.32839 8.45313 2.50907 7.53626 2.86313 6.68116C3.21719 5.82607 3.73759 5.04978 4.39413 4.39733V4.39966Z" fill="#707B81"/>
</svg>
