<svg width="19" height="19" viewBox="0 0 19 19" fill="none" xmlns="http://www.w3.org/2000/svg">
<path d="M2.37192 13.8203C3.76548 15.2154 5.62126 16.0529 7.58966 16.175C9.55806 16.2971 11.5032 15.6954 13.0586 14.4833L17.2945 18.7176C17.4843 18.9008 17.7385 19.0023 18.0024 19C18.2662 18.9977 18.5186 18.8919 18.7052 18.7053C18.8918 18.5188 18.9977 18.2665 19 18.0027C19.0023 17.7389 18.9008 17.4847 18.7175 17.295L14.4816 13.0607C15.7479 11.436 16.3466 9.38963 16.1556 7.33886C15.9646 5.28809 14.9982 3.38741 13.4536 2.02445C11.909 0.661479 9.90244 -0.0611066 7.84323 0.00405279C5.78402 0.0692122 3.82722 0.917209 2.37192 2.3751C1.61995 3.12646 1.02344 4.01858 0.616457 5.00048C0.209475 5.98238 0 7.03482 0 8.09768C0 9.16053 0.209475 10.213 0.616457 11.1949C1.02344 12.1768 1.61995 13.0689 2.37192 13.8203ZM3.79493 3.79971C4.7898 2.80515 6.09884 2.1862 7.49901 2.04832C8.89919 1.91045 10.3039 2.26217 11.4737 3.04356C12.6436 3.82496 13.5062 4.98768 13.9147 6.33363C14.3232 7.67958 14.2522 9.12549 13.7139 10.425C13.1756 11.7245 12.2032 12.7972 10.9624 13.4604C9.72169 14.1235 8.28932 14.3361 6.90937 14.0618C5.52943 13.7876 4.28729 13.0435 3.39459 11.9563C2.50189 10.8692 2.01386 9.50622 2.01365 8.09969C2.01089 7.30043 2.16692 6.50859 2.4727 5.77009C2.77848 5.0316 3.22792 4.36117 3.79493 3.7977V3.79971Z" fill="#00C17C"/>
</svg>
